<svg xmlns="http://www.w3.org/2000/svg" xmlns:xlink="http://www.w3.org/1999/xlink" viewBox="0 0 623.62 255.12"><defs><style>.cls-1,.cls-2{fill:none;}.cls-2{clip-path:url(#clip-path);}.cls-3{fill:#fff;}.cls-4{font-size:34.11px;fill:#494949;font-family:HKGrotesk-Regular, HK Grotesk;letter-spacing:-0.01em;}.cls-5{clip-path:url(#clip-path-8);}.cls-6{fill:#007dc3;}.cls-7{clip-path:url(#clip-path-9);}.cls-8{clip-path:url(#clip-path-10);}.cls-9{clip-path:url(#clip-path-11);}.cls-10{clip-path:url(#clip-path-12);}.cls-11{fill:#fcef52;}.cls-12{clip-path:url(#clip-path-13);}.cls-13{clip-path:url(#clip-path-14);}.cls-14{fill:#f3322b;}.cls-15{fill:#fefdfd;}</style><clipPath id="clip-path"><rect class="cls-1" x="-14.72" y="25.58" width="653.07" height="203.95"/></clipPath><clipPath id="clip-path-8"><path class="cls-2" d="M559.25,114.45l-.3-1,36-3.11.75-5.92-139.76,5.48-3.05,37.95H561c-.07-8-.22-29-1.71-33.44Z"/></clipPath><clipPath id="clip-path-9"><path class="cls-2" d="M469.11,140.78H460.4l.29-6.14,9,.89h.14c.67,0,1-.51,1-1.63s-.52-1.7-1.26-1.7l-4.7-.22c-3.35-.22-5.14-2.29-5.14-6.36A13.9,13.9,0,0,1,461,119a4.68,4.68,0,0,1,3.57-2.52l9.17-.74-.23,10.8-8.79-1.11c-.29.15-.52.22-.67.52a2,2,0,0,0-.22,1.18c0,1,.22,1.56.74,1.56l4.92-.22h.22c2.84,0,4.25,1.84,4.25,5.47l.15,1.55c-.15,3.56-1.93,5.26-5,5.26Zm22.8-.44-5.22,1.19-3.13-9.47-3.5,3.55.23,5.17-2.54-.14-2.31-23.45,6.41-1.19.3,10.58,5.44-11.24,5.14,1-7.15,11.47,6.33,12.57Zm17.21-7.1v1c0,4.44-1.12,6.59-3.13,6.59h-.45l-6,.15a3.19,3.19,0,0,1-3.06-1.7,10.73,10.73,0,0,1-1-5.18v-.44L494,117.26l5.52-.88.89,17.89h5.74l.44-15.9,3.58-.74-1,15.61Zm18.54-9.1v.44l-.44,9.18a13.26,13.26,0,0,1-1.12,5.32,4.05,4.05,0,0,1-2.91,2.15l-6.55-.52c-2.38-.22-3.95-2.66-4.55-7.32l-.29-9.18a25.56,25.56,0,0,1,.52-2.88,8.6,8.6,0,0,1,2.23-4,3.26,3.26,0,0,1,1.64-.73h7.3c2.68.29,4.1,2.81,4.1,7.24.07,0,.07.23.07.3Zm14.23,16.57-12.51,1.11V116.45l5.88.3-1.71,19.45,8.57-1.4-.23,5.91Zm16.47-.44a2.52,2.52,0,0,1-2.54-1.63,3.25,3.25,0,0,1-2.53,2.52l-4.32-.45c-3.5-.3-5.21-2.66-5.21-6.88a7.22,7.22,0,0,1,1.26-4.51,4.49,4.49,0,0,1,3.8-1.63h.45l5.14.3a2,2,0,0,1,1.71,1.7,7.44,7.44,0,0,0,.22-1.63c0-1.55-.52-2.29-1.63-2.37l-9.91.89v-8.65l8.34-.67h.45a4.66,4.66,0,0,1,3.95,2.07A11.12,11.12,0,0,1,559,125.4v.52l-.22,11.47v.44c-.15,1.26,0,2.15.45,2.52a2.89,2.89,0,0,0-.82-.08Z"/></clipPath><clipPath id="clip-path-10"><polygon class="cls-2" points="514.34 126.13 514.19 136.05 522.89 136.05 522.21 125.39 514.34 126.13 514.34 126.13"/></clipPath><clipPath id="clip-path-11"><path class="cls-2" d="M555,131.6l-5.93-.29a.88.88,0,0,0-.65.43,4.08,4.08,0,0,0-.21,1.51c0,.94.29,1.37,1.08,1.37l5.71.22c.51.14.72-.29.72-1.37s-.14-1.66-.72-1.87Z"/></clipPath><clipPath id="clip-path-12"><path class="cls-2" d="M602.06,111.57l-40.8,3.57c1.56,6.85,1.56,30.53,1.56,35.52l47.1-4.25c-6.23-9.45-7.64-30.44-7.86-34.84Z"/></clipPath><clipPath id="clip-path-13"><path class="cls-2" d="M566.82,141.05a2.51,2.51,0,0,1-1.41-1.19v-.22a2.43,2.43,0,0,1,1.19-2.39c.89,0,1.41.68,1.7,1.94-.36,1.27-1,1.79-1.48,1.86Zm13.43-1.19h-.45c-1-4.46-1.92-7.07-3.11-7.81h-.22c-1.12,0-1.64,2.9-1.71,8.78l-.89.52c-.74-.22-1.19-.67-1.19-1.19-.14-2.08-.66-5.73-1.63-11.09l.67-.52h.67c.44,0,.89,1.11,1.26,3.12h.22c1.19-1.71,2.15-2.6,3.12-2.6,1.7-.15,3.11,2.38,4.22,7.52-.22,2.23-.52,3.27-1,3.27Zm11.5-1.26c-1,1.56-2.08,2.3-3.12,2.38-2.3.15-4.3-1.64-6.16-5.21l-.51-2.53c-.15-2.53,1.4-5.14,4.45-7.6l.51-.15c2.6.45,4,1.87,4.08,4l.3,1.57c.15,2.16-.67,3.27-2.15,3.35l-4.08.67v.22c.15,1.71,1.41,2.83,4,3.28h.44l2.3-.52-.07.52Zm9.19-1.34a6.28,6.28,0,0,1-4.52,2.16c-1.86.14-2.67-2.31-2.52-7.15-1.56,1.12-2.15,1-2.15-.3v-.74L594,130l-.22-2.83c.15-4.91.22-7.3.3-7.37l1-.22c.45,0,.89.44,1.41,1.41a36.31,36.31,0,0,0-.22,6l.15,1.56h.44l1.41-.3.67.23v1L596.57,132l.14,3.72a1.62,1.62,0,0,0,1,1.71l2.89-1.41.22,1,.23.22-.08.08Z"/></clipPath><clipPath id="clip-path-14"><path class="cls-2" d="M589.35,131.28l-.15-2.57A1.56,1.56,0,0,0,588,127c-2.68,1.66-3.94,3.4-3.79,5.52h1.18c2.53-.07,4-.52,4-1.21Z"/></clipPath></defs><title>rds-skuolanet</title><g id="BG"><rect class="cls-3" width="623.62" height="255.12"/></g><g id="Logo"><text class="cls-4" transform="translate(256.03 140.71)">powered by</text><g class="cls-5"><rect class="cls-6" x="449.32" y="100.91" width="149.91" height="50.53"/></g><g class="cls-7"><rect class="cls-3" x="456.17" y="111.78" width="106.56" height="33.59"/></g><g class="cls-8"><rect class="cls-6" x="510.63" y="121.84" width="15.81" height="17.77"/></g><g class="cls-9"><rect class="cls-6" x="544.65" y="127.76" width="14.62" height="10.66"/></g><g class="cls-10"><rect class="cls-11" x="557.71" y="108.02" width="55.76" height="46.19"/></g><g class="cls-12"><rect class="cls-6" x="561.83" y="115.98" width="42.74" height="28.92"/></g><g class="cls-13"><rect class="cls-11" x="580.65" y="123.41" width="12.25" height="12.63"/></g><path class="cls-14" d="M246.31,75.8v.48a3.61,3.61,0,0,0-.24.62q-1.69,9.6-3.38,19.21-1.86,10.61-3.74,21.19-1.39,7.8-2.78,15.6l-2.4,13.62L231,162.24q-1.23,7-2.48,14.09c-.9,5.12-1.82,10.24-2.72,15.37-.23,1.31-.39,2.64-.58,4H112.72c.56-3.09,1.13-6.18,1.73-9.43H15.59c-.55,0-1.1,0-1.65,0V186c.06-.1.16-.19.18-.29q1.1-6.22,2.18-12.46L19,157.6q1.23-7,2.47-14,1.37-7.8,2.72-15.6c.9-5.12,1.82-10.24,2.72-15.36q1.39-7.91,2.78-15.83,1.35-7.74,2.71-15.48c.32-1.82.65-3.63,1-5.54H47.79c0,.67,0,1.34,0,2v84.85H63.74V150.43c0-4.06,0-8.13,0-12.2s-.06-8.08,0-12.12h5.06q4.45,18.35,8.89,36.6c3.05.22,16.14.12,17.06-.14L82.89,122.33c.21-.16.36-.28.52-.39A21,21,0,0,0,90.94,112a35.56,35.56,0,0,0,2-9.11A52.33,52.33,0,0,0,92.58,89,28.78,28.78,0,0,0,86.3,74.88,13.8,13.8,0,0,0,79,70.25a18.59,18.59,0,0,0-3.37-.59c-2.68-.17-5.36-.29-8-.31-6.12,0-12.24,0-18.36,0a7.34,7.34,0,0,1,0-1c.33-1.86.71-3.71,1-5.57.16-.92.23-1.86.34-2.79h148c-.11.82-.19,1.64-.34,2.45-.73,4.11-1.49,8.21-2.22,12.32a6.71,6.71,0,0,0,0,1.11h1.33l39.16,0C239.85,75.83,243.08,75.81,246.31,75.8ZM100.17,69.3c-.22,2.1-.13,92.51.1,93.45h1.26c6.28,0,12.55,0,18.83,0a37.29,37.29,0,0,0,4.84-.26,20.13,20.13,0,0,0,13.92-7.65,42.17,42.17,0,0,0,7.47-16.07,97,97,0,0,0,2.52-21.46,127.5,127.5,0,0,0-.57-14,67,67,0,0,0-3.41-15.91,29.44,29.44,0,0,0-5.85-10.2,21.63,21.63,0,0,0-12.6-7.18,54.75,54.75,0,0,0-9.3-.8c-5.37,0-10.73,0-16.1,0C100.93,69.26,100.58,69.29,100.17,69.3Zm96.26,20.18c-.1-.47-.15-.86-.26-1.22-.63-1.91-1.24-3.83-1.9-5.72a24.64,24.64,0,0,0-6.57-9.86,15.45,15.45,0,0,0-5.28-3.29,21.12,21.12,0,0,0-5.76-1.25,18,18,0,0,0-13.85,4.27,24,24,0,0,0-6.44,8.82,37.48,37.48,0,0,0-1.82,25.11,23.75,23.75,0,0,0,10,14.17c1.68,1.12,3.35,2.24,5.06,3.29,2,1.22,4,2.33,6,3.53,2.38,1.43,4.43,3.19,5.35,5.94a13.6,13.6,0,0,1-.05,8.95,7.13,7.13,0,0,1-4.09,4.65,9.18,9.18,0,0,1-5.58.33,7.81,7.81,0,0,1-5-4.18,24,24,0,0,1-2.1-5.63c-.3-1.17-.56-2.36-.85-3.64l-12.92,5.33a52.16,52.16,0,0,0,3,11.44,22.51,22.51,0,0,0,3.11,5.56,18.56,18.56,0,0,0,10.2,7.28,26.35,26.35,0,0,0,13.23.15,20.26,20.26,0,0,0,12-8.13,25.43,25.43,0,0,0,3.5-6.69,41.15,41.15,0,0,0,1.19-23.08,23.45,23.45,0,0,0-8.86-13.74,41.77,41.77,0,0,0-5.67-3.65,82.86,82.86,0,0,1-9.57-5.65,9,9,0,0,1-4-6.94,14,14,0,0,1,1.28-7.47A6.27,6.27,0,0,1,176.88,85a7.49,7.49,0,0,1,5,3.74,19.3,19.3,0,0,1,2,4.93c.18.67.37,1.34.58,2.1Zm-86.11,77.87v12h2.17v-6.07l.14,0,1.7,6.12h2.57v-11.9h-2.17c0,1.12,0,2.15,0,3.17a12.62,12.62,0,0,1-.09,2.94l-1.77-6.18Zm8.61-.09v12.09c1.24,0,2.42,0,3.59,0,1.92-.07,2.79-.85,3-2.78a26.59,26.59,0,0,0,0-6.49c0-.15,0-.31-.07-.46a2.53,2.53,0,0,0-2.36-2.15C121.76,167.33,120.38,167.33,118.93,167.26Zm24.65.11a1.65,1.65,0,0,0-.1.38c0,2.84,0,5.69,0,8.53a5.15,5.15,0,0,0,.25,1.39,2.5,2.5,0,0,0,2.28,1.93,7.11,7.11,0,0,0,1.53,0,2.71,2.71,0,0,0,2.56-2.5,13.19,13.19,0,0,0,.14-1.77q0-3.5,0-7c0-.3,0-.61-.07-1h-2.4c0,.3,0,.53,0,.76,0,2.41,0,4.82,0,7.22a8.33,8.33,0,0,1-.15,1.41.68.68,0,0,1-.74.62.72.72,0,0,1-.71-.68,11,11,0,0,1-.1-1.41v-7c0-.31-.05-.61-.07-.95Zm-49.81-.11v12h2.45v-4.64c1.29-.06,1.54.12,1.62,1.21,0,.59,0,1.18,0,1.77s.13,1.14.19,1.73a12.58,12.58,0,0,0,2.66-.07c-.1-1-.25-1.88-.27-2.77a4,4,0,0,0-1.12-3.16,3.85,3.85,0,0,0,1.07-3.94,2.16,2.16,0,0,0-1.95-1.94C96.91,167.34,95.38,167.33,93.77,167.26Zm-4.23,7.8c-.08.63-.12,1.18-.23,1.71a.75.75,0,0,1-.84.67.73.73,0,0,1-.68-.7,6.24,6.24,0,0,1-.13-.94c0-1.58,0-3.16,0-4.73a5.18,5.18,0,0,1,.18-1.17c.09-.39.37-.67.76-.56a1.06,1.06,0,0,1,.63.58,7.56,7.56,0,0,1,.25,1.4h2.28a4.5,4.5,0,0,0-.28-2.48,2.58,2.58,0,0,0-2-1.68,3.22,3.22,0,0,0-4.24,2.91,47,47,0,0,0-.14,5.31,7.42,7.42,0,0,0,.46,2.42,2.62,2.62,0,0,0,3,1.75A6.51,6.51,0,0,0,90,179c.53.64,1.19.35,1.81.36a31.89,31.89,0,0,0,0-6.51H88.52v2ZM60,173.43c-.09-1.21-.11-2.51-.32-3.78a3.13,3.13,0,0,0-6.06-.07,24.63,24.63,0,0,0,0,7.76,2.82,2.82,0,0,0,3.13,2.29,2.78,2.78,0,0,0,3-2.46C59.82,176,59.86,174.74,60,173.43Zm7.84,0c-.11-1.24-.14-2.54-.34-3.81a2.61,2.61,0,0,0-2.06-2.19,3,3,0,0,0-4.06,2.71c-.14,2-.07,4.08-.07,6.13a4.55,4.55,0,0,0,.14,1.16,2.9,2.9,0,0,0,3.18,2.23,2.77,2.77,0,0,0,2.9-2.4C67.65,176,67.68,174.72,67.79,173.4Zm88.82,1.36c-.06.63-.09,1.22-.19,1.79a.87.87,0,0,1-.84.84c-.47,0-.84-.28-.91-.9a26.22,26.22,0,0,1,0-6.26.87.87,0,0,1,.81-.87c.48-.05.8.22,1,.84a11,11,0,0,1,.2,1.24h2.49a20.69,20.69,0,0,0-.49-2.4,2.73,2.73,0,0,0-2-1.84c-2.48-.65-4.41.62-4.57,3.18-.12,2,0,4,0,6a3.73,3.73,0,0,0,.18.93A3.61,3.61,0,0,0,158,178.8a2.63,2.63,0,0,0,.49-.66,5.87,5.87,0,0,0,.52-3.38Zm-52.82-7.4c-.78,4-1.55,7.94-2.33,11.95H104l.35-2.13h1.91l.38,2.16a9.5,9.5,0,0,0,2.5,0l-2.32-11.95Zm64,7.4H165.3c0,.5-.06.93-.12,1.35-.12.9-.41,1.29-.94,1.29s-.88-.37-.92-1.29c-.07-1.81,0-3.62,0-5.42a3,3,0,0,1,.1-.59.84.84,0,0,1,.8-.74.85.85,0,0,1,.91.75c.11.45.19.9.28,1.36h2.28a4.29,4.29,0,0,0-.44-2.67,3.61,3.61,0,0,0-1.17-1.28,3.42,3.42,0,0,0-5.25,2.52,28.09,28.09,0,0,0,0,6.48c.21,2.23,1.85,3.42,4.15,3.1a2.79,2.79,0,0,0,2.57-2.24C167.66,176.58,167.69,175.76,167.82,174.76Zm-32.33.57a12.63,12.63,0,0,0,0,1.75,2.88,2.88,0,0,0,3.13,2.6,3,3,0,0,0,3.2-2.55c.34-1.93,0-3.61-1.82-4.73a13,13,0,0,1-1.5-1.16A1.36,1.36,0,0,1,138,170c0-.42.22-.79.69-.83a.74.74,0,0,1,.77.61,10,10,0,0,1,.2,1.06h2.28a12.66,12.66,0,0,0-.26-1.78,2.78,2.78,0,0,0-2.88-2,2.82,2.82,0,0,0-2.92,1.8,4.11,4.11,0,0,0,1.07,4.64c.6.45,1.19.92,1.77,1.39a1.89,1.89,0,0,1,.83,1.49c0,.59-.29,1-.74,1.06s-.82-.23-.93-.85c-.07-.41-.1-.83-.15-1.25Zm41.14,0a18.6,18.6,0,0,0,.28,2.12,2.78,2.78,0,0,0,3,2.21,3,3,0,0,0,3.14-2,4.32,4.32,0,0,0-1.54-5.14c-.38-.29-.78-.54-1.15-.84a2.78,2.78,0,0,1-.75-.74,2.33,2.33,0,0,1-.27-1.1.63.63,0,0,1,.69-.65,1.11,1.11,0,0,1,.69.53,5.11,5.11,0,0,1,.3,1.1h2.19c0-.44,0-.79-.08-1.13a2.83,2.83,0,0,0-3.08-2.64,2.89,2.89,0,0,0-3.09,2.65,3.89,3.89,0,0,0,1.52,4q.87.63,1.68,1.32a1.68,1.68,0,0,1,.66,1.67c-.08.42-.27.75-.75.78a.76.76,0,0,1-.83-.69c-.09-.45-.15-.91-.22-1.4Zm7.73,0a18,18,0,0,0,.17,2,2.8,2.8,0,0,0,2.87,2.33,3,3,0,0,0,3.26-2,4.25,4.25,0,0,0-1.5-5.14c-.41-.32-.85-.59-1.24-.92a3.22,3.22,0,0,1-.8-.85,1.44,1.44,0,0,1-.12-1,.9.9,0,0,1,.63-.57.94.94,0,0,1,.69.48,4.39,4.39,0,0,1,.3,1.12h2.3c-.11-.65-.14-1.2-.28-1.72a2.8,2.8,0,0,0-2.86-2,2.86,2.86,0,0,0-3,1.86,4,4,0,0,0,1.15,4.61c.59.45,1.19.91,1.76,1.39a1.82,1.82,0,0,1,.79,1.63.88.88,0,0,1-.78.9c-.45.05-.75-.21-.86-.78-.09-.42-.12-.85-.18-1.32Zm-12.26-3.48v-2.2h3.23v-2.28h-5.7a116.52,116.52,0,0,0,.07,11.92h5.66v-2.38H172.1V174.3h3v-2.44Zm35-70.93a6.12,6.12,0,0,0,0-12.24,6.12,6.12,0,0,0,0,12.24ZM51.22,179.33a113.07,113.07,0,0,0-.09-12H49.86a8.18,8.18,0,0,1-1.39,1.49,6.84,6.84,0,0,1-1.7.53V171l2.07.09v8.21Zm141.24-12v11.94h2.46V167.37Zm-62.58,11.95V167.38h-2.42v12h1.82A4.62,4.62,0,0,0,129.88,179.32Zm-56.17-9a12.41,12.41,0,0,0-.23-1.57,2,2,0,0,0-2.26-1.46,1.93,1.93,0,0,0-2.06,1.57,6.74,6.74,0,0,0,0,2.93,2,2,0,0,0,2.23,1.81,2,2,0,0,0,2.24-1.81C73.66,171.35,73.66,170.91,73.71,170.3ZM75,176.19c0,.65,0,1.08.1,1.51a2.78,2.78,0,0,0,.2.68c.35.89,1,1.24,2.18,1.21a1.85,1.85,0,0,0,2-1.31,6.14,6.14,0,0,0,0-3.6c-.28-.93-1-1.33-2.11-1.33s-1.81.36-2.11,1.32A10.26,10.26,0,0,0,75,176.19Zm-2.48,3.35c1.69-4,3.37-8.1,5.09-12.24H76.23c-1.69,4-3.41,8.08-5.1,12.24Z"/><path class="cls-15" d="M100.17,69.3c.41,0,.76,0,1.11,0,5.37,0,10.73-.05,16.1,0a54.75,54.75,0,0,1,9.3.8,21.63,21.63,0,0,1,12.6,7.18,29.44,29.44,0,0,1,5.85,10.2,67,67,0,0,1,3.41,15.91,127.5,127.5,0,0,1,.57,14,97,97,0,0,1-2.52,21.46,42.17,42.17,0,0,1-7.47,16.07,20.13,20.13,0,0,1-13.92,7.65,37.29,37.29,0,0,1-4.84.26c-6.28,0-12.55,0-18.83,0h-1.26C100,161.81,100,71.4,100.17,69.3Zm15.9,16.16c0,.4-.06.59-.06.78q0,29.94,0,59.89s0,.07.06.1l.16.13c1.35,0,2.77-.06,4.18,0a13.4,13.4,0,0,0,4.75-.8,5.78,5.78,0,0,0,2.69-1.86,9.64,9.64,0,0,0,2.07-4,36.11,36.11,0,0,0,.95-5.23c.38-4.4.76-8.81.88-13.22.12-4.81,0-9.62-.13-14.43a68.52,68.52,0,0,0-1-10.12,25.26,25.26,0,0,0-2.07-7,6.72,6.72,0,0,0-5.37-4C120.93,85.48,118.55,85.55,116.07,85.46Z"/><path class="cls-15" d="M47.79,75.83c.33-1.66.63-3.31,1-5a14.37,14.37,0,0,1,.5-1.53c6.12,0,12.24,0,18.36,0,2.68,0,5.36.14,8,.31a18.59,18.59,0,0,1,3.37.59,13.8,13.8,0,0,1,7.26,4.63A28.78,28.78,0,0,1,92.58,89a52.33,52.33,0,0,1,.33,13.92,35.56,35.56,0,0,1-2,9.11,21,21,0,0,1-7.53,9.94c-.16.11-.31.23-.52.39L94.8,162.57c-.92.26-14,.36-17.06.14q-4.44-18.24-8.89-36.6H63.79c-.1,4,0,8.08,0,12.12s0,8.14,0,12.2v12.26H47.82V77.84C47.82,77.17,47.8,76.5,47.79,75.83Zm16,34.75c2,0,3.88.13,5.76,0A6.59,6.59,0,0,0,75.05,107a14.2,14.2,0,0,0,1.18-3,28,28,0,0,0,.57-10.79,18.63,18.63,0,0,0-1-4.23,7.29,7.29,0,0,0-7.19-5q-2,0-4,0a5.83,5.83,0,0,0-.8.1Z"/><path class="cls-15" d="M196.43,89.48l-12.06,6.28c-.21-.76-.4-1.43-.58-2.1a19.3,19.3,0,0,0-2-4.93,7.49,7.49,0,0,0-5-3.74,6.27,6.27,0,0,0-7.12,3.17,14,14,0,0,0-1.28,7.47,9,9,0,0,0,4,6.94,82.86,82.86,0,0,0,9.57,5.65,41.77,41.77,0,0,1,5.67,3.65,23.45,23.45,0,0,1,8.86,13.74,41.15,41.15,0,0,1-1.19,23.08,25.43,25.43,0,0,1-3.5,6.69,20.26,20.26,0,0,1-12,8.13,26.35,26.35,0,0,1-13.23-.15,18.56,18.56,0,0,1-10.2-7.28,22.51,22.51,0,0,1-3.11-5.56,52.16,52.16,0,0,1-3-11.44l12.92-5.33c.29,1.28.55,2.47.85,3.64a24,24,0,0,0,2.1,5.63,7.81,7.81,0,0,0,5,4.18,9.18,9.18,0,0,0,5.58-.33,7.13,7.13,0,0,0,4.09-4.65,13.6,13.6,0,0,0,.05-8.95c-.92-2.75-3-4.51-5.35-5.94-2-1.2-4-2.31-6-3.53-1.71-1-3.38-2.17-5.06-3.29a23.75,23.75,0,0,1-10-14.17,37.48,37.48,0,0,1,1.82-25.11,24,24,0,0,1,6.44-8.82,18,18,0,0,1,13.85-4.27,21.12,21.12,0,0,1,5.76,1.25,15.45,15.45,0,0,1,5.28,3.29,24.64,24.64,0,0,1,6.57,9.86c.66,1.89,1.27,3.81,1.9,5.72C196.28,88.62,196.33,89,196.43,89.48Z"/><path class="cls-15" d="M110.32,167.35h2.56l1.77,6.18a12.62,12.62,0,0,0,.09-2.94c0-1,0-2.05,0-3.17h2.17v11.9h-2.57l-1.7-6.12-.14,0v6.07h-2.17Z"/><path class="cls-15" d="M118.93,167.26c1.45.07,2.83.07,4.19.2a2.53,2.53,0,0,1,2.36,2.15c0,.15,0,.31.07.46a26.59,26.59,0,0,1,0,6.49c-.24,1.93-1.11,2.71-3,2.78-1.17,0-2.35,0-3.59,0Zm2.57,2.45v7.4c1.12,0,1.52-.18,1.56-1.13.07-1.73.07-3.47,0-5.2C123,169.85,122.62,169.63,121.5,169.71Z"/><path class="cls-15" d="M143.58,167.37H146c0,.34.06.64.07.95v7a11,11,0,0,0,.1,1.41.72.72,0,0,0,.71.68.68.68,0,0,0,.74-.62,8.33,8.33,0,0,0,.15-1.41c0-2.4,0-4.81,0-7.22,0-.23,0-.46,0-.76h2.4c0,.36.07.67.07,1q0,3.5,0,7a13.19,13.19,0,0,1-.14,1.77,2.71,2.71,0,0,1-2.56,2.5,7.11,7.11,0,0,1-1.53,0,2.5,2.5,0,0,1-2.28-1.93,5.15,5.15,0,0,1-.25-1.39c0-2.84,0-5.69,0-8.53A1.65,1.65,0,0,1,143.58,167.37Z"/><path class="cls-15" d="M93.77,167.26c1.61.07,3.14.08,4.66.22a2.16,2.16,0,0,1,1.95,1.94,3.85,3.85,0,0,1-1.07,3.94,4,4,0,0,1,1.12,3.16c0,.89.17,1.79.27,2.77a12.58,12.58,0,0,1-2.66.07c-.06-.59-.15-1.16-.19-1.73s0-1.18,0-1.77c-.08-1.09-.33-1.27-1.62-1.21v4.64H93.77Zm2.49,2.21v2.83c1.29,0,1.69-.37,1.68-1.45S97.58,169.51,96.26,169.47Z"/><path class="cls-15" d="M89.54,175.06l-1-.26v-2h3.21a31.89,31.89,0,0,1,0,6.51c-.62,0-1.28.28-1.81-.36a6.51,6.51,0,0,1-1.37.57,2.62,2.62,0,0,1-3-1.75,7.42,7.42,0,0,1-.46-2.42,47,47,0,0,1,.14-5.31,3.22,3.22,0,0,1,4.24-2.91,2.58,2.58,0,0,1,2,1.68,4.5,4.5,0,0,1,.28,2.48H89.48a7.56,7.56,0,0,0-.25-1.4,1.06,1.06,0,0,0-.63-.58c-.39-.11-.67.17-.76.56a5.18,5.18,0,0,0-.18,1.17c0,1.57,0,3.15,0,4.73a6.24,6.24,0,0,0,.13.94.73.73,0,0,0,.68.7.75.75,0,0,0,.84-.67C89.42,176.24,89.46,175.69,89.54,175.06Z"/><path class="cls-15" d="M60,173.43c-.09,1.31-.13,2.53-.29,3.74a2.78,2.78,0,0,1-3,2.46,2.82,2.82,0,0,1-3.13-2.29,24.63,24.63,0,0,1,0-7.76,3.13,3.13,0,0,1,6.06.07C59.84,170.92,59.86,172.22,60,173.43Zm-4.11,0h0c0,.91,0,1.82,0,2.73a2.49,2.49,0,0,0,.23,1,.58.58,0,0,0,1,0,1.91,1.91,0,0,0,.19-.79c0-1.73.06-3.47.07-5.2a2.38,2.38,0,0,0-.12-.93c-.13-.29-.38-.69-.63-.74-.46-.1-.66.33-.74.74a4.57,4.57,0,0,0-.07.83C55.83,171.83,55.84,172.61,55.84,173.4Z"/><path class="cls-15" d="M67.79,173.4c-.11,1.32-.14,2.58-.31,3.83a2.77,2.77,0,0,1-2.9,2.4,2.9,2.9,0,0,1-3.18-2.23,4.55,4.55,0,0,1-.14-1.16c0-2.05-.07-4.1.07-6.13a3,3,0,0,1,4.06-2.71,2.61,2.61,0,0,1,2.06,2.19C67.65,170.86,67.68,172.16,67.79,173.4Zm-4.13,0h0c0,.91,0,1.81,0,2.72a2.32,2.32,0,0,0,.19.91.68.68,0,0,0,.52.38A1,1,0,0,0,65,177a1.64,1.64,0,0,0,.15-.8c0-1.78,0-3.55,0-5.32a1.59,1.59,0,0,0-.1-.7c-.16-.28-.38-.68-.64-.73-.46-.09-.66.34-.74.75a5.67,5.67,0,0,0-.07.82C63.65,171.83,63.66,172.62,63.66,173.41Z"/><path class="cls-15" d="M156.61,174.76H159a5.87,5.87,0,0,1-.52,3.38,2.63,2.63,0,0,1-.49.66,3.61,3.61,0,0,1-5.77-1.47,3.73,3.73,0,0,1-.18-.93c0-2-.11-4,0-6,.16-2.56,2.09-3.83,4.57-3.18a2.73,2.73,0,0,1,2,1.84,20.69,20.69,0,0,1,.49,2.4h-2.49a11,11,0,0,0-.2-1.24c-.16-.62-.48-.89-1-.84a.87.87,0,0,0-.81.87,26.22,26.22,0,0,0,0,6.26c.07.62.44.93.91.9a.87.87,0,0,0,.84-.84C156.52,176,156.55,175.39,156.61,174.76Z"/><path class="cls-15" d="M103.79,167.36h3l2.32,11.95a9.5,9.5,0,0,1-2.5,0l-.38-2.16h-1.91l-.35,2.13h-2.54C102.24,175.3,103,171.38,103.79,167.36Zm2.22,7.45-.65-4.47-.16,0-.58,4.45Z"/><path class="cls-15" d="M167.82,174.76c-.13,1-.16,1.82-.35,2.62a2.79,2.79,0,0,1-2.57,2.24c-2.3.32-3.94-.87-4.15-3.1a28.09,28.09,0,0,1,0-6.48,3.42,3.42,0,0,1,5.25-2.52,3.61,3.61,0,0,1,1.17,1.28,4.29,4.29,0,0,1,.44,2.67h-2.28c-.09-.46-.17-.91-.28-1.36a.85.85,0,0,0-.91-.75.84.84,0,0,0-.8.74,3,3,0,0,0-.1.59c0,1.8,0,3.61,0,5.42,0,.92.4,1.29.92,1.29s.82-.39.94-1.29c.06-.42.08-.85.12-1.35Z"/><path class="cls-15" d="M135.49,175.33h2.2c.05.42.08.84.15,1.25.11.62.45.92.93.85s.73-.47.74-1.06a1.89,1.89,0,0,0-.83-1.49c-.58-.47-1.17-.94-1.77-1.39a4.11,4.11,0,0,1-1.07-4.64,2.82,2.82,0,0,1,2.92-1.8,2.78,2.78,0,0,1,2.88,2,12.66,12.66,0,0,1,.26,1.78h-2.28a10,10,0,0,0-.2-1.06.74.74,0,0,0-.77-.61c-.47,0-.64.41-.69.83a1.36,1.36,0,0,0,.55,1.24,13,13,0,0,0,1.5,1.16c1.81,1.12,2.16,2.8,1.82,4.73a3,3,0,0,1-3.2,2.55,2.88,2.88,0,0,1-3.13-2.6A12.63,12.63,0,0,1,135.49,175.33Z"/><path class="cls-15" d="M176.63,175.35H179c.07.49.13,1,.22,1.4a.76.76,0,0,0,.83.69c.48,0,.67-.36.75-.78a1.68,1.68,0,0,0-.66-1.67q-.81-.69-1.68-1.32a3.89,3.89,0,0,1-1.52-4,2.89,2.89,0,0,1,3.09-2.65,2.83,2.83,0,0,1,3.08,2.64c0,.34,0,.69.08,1.13H181a5.11,5.11,0,0,0-.3-1.1,1.11,1.11,0,0,0-.69-.53.63.63,0,0,0-.69.65,2.33,2.33,0,0,0,.27,1.1,2.78,2.78,0,0,0,.75.74c.37.3.77.55,1.15.84a4.32,4.32,0,0,1,1.54,5.14,3,3,0,0,1-3.14,2,2.78,2.78,0,0,1-3-2.21A18.6,18.6,0,0,1,176.63,175.35Z"/><path class="cls-15" d="M184.36,175.34h2.31c.06.47.09.9.18,1.32.11.57.41.83.86.78a.88.88,0,0,0,.78-.9,1.82,1.82,0,0,0-.79-1.63c-.57-.48-1.17-.94-1.76-1.39a4,4,0,0,1-1.15-4.61,2.86,2.86,0,0,1,3-1.86,2.8,2.8,0,0,1,2.86,2c.14.52.17,1.07.28,1.72h-2.3a4.39,4.39,0,0,0-.3-1.12.94.94,0,0,0-.69-.48.9.9,0,0,0-.63.57,1.44,1.44,0,0,0,.12,1,3.22,3.22,0,0,0,.8.85c.39.33.83.6,1.24.92a4.25,4.25,0,0,1,1.5,5.14,3,3,0,0,1-3.26,2,2.8,2.8,0,0,1-2.87-2.33A18,18,0,0,1,184.36,175.34Z"/><path class="cls-15" d="M172.1,171.86h3v2.44h-3v2.62h3.26v2.38H169.7a116.52,116.52,0,0,1-.07-11.92h5.7v2.28H172.1Z"/><path class="cls-15" d="M207.1,100.93a6.12,6.12,0,1,1,5.9-6.12A6,6,0,0,1,207.1,100.93Zm2.73-2.61c.19-.08.43-.11.55-.25a4.93,4.93,0,0,0,1.09-4.2,4.52,4.52,0,0,0-4-3.81,4.43,4.43,0,0,0-4.58,2.84,5.12,5.12,0,0,0,.12,4.13,4.41,4.41,0,0,0,6.6,1.71c.12-.09.14-.3.21-.45Z"/><path class="cls-15" d="M51.22,179.33H48.84v-8.21L46.77,171v-1.68a6.84,6.84,0,0,0,1.7-.53,8.18,8.18,0,0,0,1.39-1.49h1.27A113.07,113.07,0,0,1,51.22,179.33Z"/><path class="cls-15" d="M192.46,167.37h2.46v11.94h-2.46Z"/><path class="cls-15" d="M129.88,179.32a4.62,4.62,0,0,1-.6.07h-1.82v-12h2.42Z"/><path class="cls-15" d="M73.71,170.3c0,.61,0,1-.13,1.47a2,2,0,0,1-2.24,1.81,2,2,0,0,1-2.23-1.81,6.74,6.74,0,0,1,0-2.93,1.93,1.93,0,0,1,2.06-1.57,2,2,0,0,1,2.26,1.46A12.41,12.41,0,0,1,73.71,170.3Zm-3,.15a6.54,6.54,0,0,0,.15,1.11.69.69,0,0,0,.47.41c.17,0,.5-.22.51-.36a18,18,0,0,0,0-2.32c0-.16-.34-.44-.47-.41a.88.88,0,0,0-.56.47A4.55,4.55,0,0,0,70.69,170.45Z"/><path class="cls-15" d="M75,176.19a10.26,10.26,0,0,1,.27-1.52c.3-1,.94-1.32,2.11-1.32s1.83.4,2.11,1.33a6.14,6.14,0,0,1,0,3.6,1.85,1.85,0,0,1-2,1.31c-1.19,0-1.83-.32-2.18-1.21a2.78,2.78,0,0,1-.2-.68C75.05,177.27,75,176.84,75,176.19Zm1.67.16a8.36,8.36,0,0,0,.2,1.28.69.69,0,0,0,.48.42c.17,0,.49-.23.5-.38,0-.81,0-1.62,0-2.43a.53.53,0,0,0-.4-.34.73.73,0,0,0-.53.33A6,6,0,0,0,76.67,176.35Z"/><path class="cls-15" d="M72.52,179.54H71.13c1.69-4.16,3.41-8.19,5.1-12.24h1.38C75.89,171.44,74.21,175.49,72.52,179.54Z"/><path class="cls-14" d="M116.07,85.46c2.48.09,4.86,0,7.19.3a6.72,6.72,0,0,1,5.37,4,25.26,25.26,0,0,1,2.07,7,68.52,68.52,0,0,1,1,10.12c.1,4.81.25,9.62.13,14.43-.12,4.41-.5,8.82-.88,13.22a36.11,36.11,0,0,1-.95,5.23,9.64,9.64,0,0,1-2.07,4,5.78,5.78,0,0,1-2.69,1.86,13.4,13.4,0,0,1-4.75.8c-1.41-.07-2.83,0-4.18,0l-.16-.13s-.06-.07-.06-.1q0-29.94,0-59.89C116,86.05,116,85.86,116.07,85.46Z"/><path class="cls-14" d="M63.78,110.58V84.16a5.83,5.83,0,0,1,.8-.1q2,0,4,0a7.29,7.29,0,0,1,7.19,5,18.63,18.63,0,0,1,1,4.23A28,28,0,0,1,76.23,104a14.2,14.2,0,0,1-1.18,3,6.59,6.59,0,0,1-5.51,3.57C67.66,110.71,65.77,110.58,63.78,110.58Z"/><path class="cls-14" d="M121.5,169.71c1.12-.08,1.54.14,1.57,1.07.06,1.73.06,3.47,0,5.2,0,1-.44,1.17-1.56,1.13Z"/><path class="cls-14" d="M96.26,169.47c1.32,0,1.67.35,1.68,1.38s-.39,1.44-1.68,1.45Z"/><path class="cls-14" d="M55.84,173.4c0-.79,0-1.57,0-2.36a4.57,4.57,0,0,1,.07-.83c.08-.41.28-.84.74-.74.25.05.5.45.63.74a2.38,2.38,0,0,1,.12.93c0,1.73,0,3.47-.07,5.2a1.91,1.91,0,0,1-.19.79.58.58,0,0,1-1,0,2.49,2.49,0,0,1-.23-1c0-.91,0-1.82,0-2.73Z"/><path class="cls-14" d="M63.66,173.41c0-.79,0-1.58,0-2.37a5.67,5.67,0,0,1,.07-.82c.08-.41.28-.84.74-.75.26.05.48.45.64.73a1.59,1.59,0,0,1,.1.7c0,1.77,0,3.54,0,5.32a1.64,1.64,0,0,1-.15.8,1,1,0,0,1-.63.4.68.68,0,0,1-.52-.38,2.32,2.32,0,0,1-.19-.91c0-.91,0-1.81,0-2.72Z"/><path class="cls-14" d="M106,174.81h-1.39l.58-4.45.16,0Z"/><path class="cls-14" d="M209.86,98.29c-.07.15-.09.36-.21.45a4.41,4.41,0,0,1-6.6-1.71,5.12,5.12,0,0,1-.12-4.13,4.43,4.43,0,0,1,4.58-2.84,4.52,4.52,0,0,1,4,3.81,4.93,4.93,0,0,1-1.09,4.2c-.12.14-.36.17-.55.25-.53-.95-1.05-1.91-1.61-2.91l.44-.19a1.74,1.74,0,0,0,1.1-2,1.65,1.65,0,0,0-1.54-1.54,19.76,19.76,0,0,0-3.35,0c-.22,2.14-.15,6.35.18,6.61l1-.08V95.55c.62-.3.93,0,1.2.43.43.77.91,1.53,1.37,2.31Z"/><path class="cls-14" d="M70.69,170.45a4.55,4.55,0,0,1,.13-1.1.88.88,0,0,1,.56-.47c.13,0,.46.25.47.41a18,18,0,0,1,0,2.32c0,.14-.34.37-.51.36a.69.69,0,0,1-.47-.41A6.54,6.54,0,0,1,70.69,170.45Z"/><path class="cls-14" d="M76.67,176.35a6,6,0,0,1,.24-1.12.73.73,0,0,1,.53-.33.53.53,0,0,1,.4.34c0,.81,0,1.62,0,2.43,0,.15-.33.39-.5.38a.69.69,0,0,1-.48-.42A8.36,8.36,0,0,1,76.67,176.35Z"/><path class="cls-15" d="M209.86,98.29H208.6c-.46-.78-.94-1.54-1.37-2.31-.27-.47-.58-.73-1.2-.43v2.63l-1,.08c-.33-.26-.4-4.47-.18-6.61a19.76,19.76,0,0,1,3.35,0,1.65,1.65,0,0,1,1.54,1.54,1.74,1.74,0,0,1-1.1,2l-.44.19c.56,1,1.08,2,1.61,2.91Zm-3.79-5.68v1.81c.36,0,.67,0,1,0a2.84,2.84,0,0,0,.58,0c.64-.13.87-.38.87-.91s-.24-.81-.87-.88S206.62,92.61,206.07,92.61Z"/><path class="cls-14" d="M206.07,92.61c.55,0,1.05,0,1.55,0s.87.36.87.88-.23.78-.87.91a2.84,2.84,0,0,1-.58,0c-.3,0-.61,0-1,0Z"/></g></svg>